<?xml version="1.0" encoding="utf-8"?>
<!-- Generator: Adobe Illustrator 22.0.1, SVG Export Plug-In . SVG Version: 6.00 Build 0)  -->
<svg version="1.1" id="Capa_1" xmlns="http://www.w3.org/2000/svg" xmlns:xlink="http://www.w3.org/1999/xlink" x="0px" y="0px"
	 viewBox="0 0 192 192" style="enable-background:new 0 0 192 192;" xml:space="preserve">
<style type="text/css">
	.st0{fill:#157F97;}
	.st1{fill:#6F6F73;}
	.st2{fill:#379DA1;}
	.st3{fill:#3FABB1;}
	.st4{fill:#7DBDCA;}
	.st5{fill:#785347;}
	.st6{fill:#D1E8EC;}
	.st7{fill:#FFFFFF;}
	.st8{fill:#145661;}
	.st9{fill:#694D43;}
	.st10{clip-path:url(#SVGID_2_);}
	.st11{fill:#181923;}
	.st12{fill:#616899;}
</style>
<path class="st0" d="M175.2,115.2c0,0-13.5-11.4-5.3-66.6C169.9,48.6,200.7,64.2,175.2,115.2z"/>
<path class="st0" d="M179.8,79.6c0,0-28.8,1.1-51.2,11.2c0.5,1.6,0.9,3.2,1.4,4.9c0.2,0.7,0.5,1.3,0.7,1.9c0.1,0.3,0.2,0.7,0.2,1
	c0.5,1.6,1.1,3.2,1.8,4.8c1.1,2.5,2.3,5.1,3.6,7.6c0.6,1,1.2,2.1,1.9,3.1C152.1,111,167.9,102,179.8,79.6z"/>
<path class="st0" d="M173.2,102.7c0,0-18.4-9.3-18.3-55.8C154.9,46.9,194.9,59.5,173.2,102.7z"/>
<path class="st0" d="M182.3,95.6c0,0-7,26.4-42.9,19.1C139.4,114.6,162.2,89.6,182.3,95.6z"/>
<rect x="79.7" y="12.7" transform="matrix(1.482799e-02 -0.9999 0.9999 1.482799e-02 25.3646 150.9534)" class="st1" width="19.2" height="99.8"/>
<rect x="79.9" y="24.3" transform="matrix(1.473224e-02 -0.9999 0.9999 1.473224e-02 44.1882 132.9638)" class="st2" width="19.3" height="39.5"/>
<polygon class="st3" points="109.2,54 69.7,53.4 69.7,48.6 109.2,49.2 "/>
<path class="st4" d="M147.4,33.3c-3.1-1.3-16.4,12.8-16.4,12.8c-15.5-5.9-28.9-7.8-39.8-7.9c-10.9-0.3-24.3,1.3-40,6.7
	c0,0-12.9-14.4-16-13.3c-3.1,1.2-20,84.4,8.8,119.2c11.8,14.2,28,18.9,45.3,19c16.8,0.4,33.6-3.8,45.8-17.7
	C164.8,118.3,150.4,34.6,147.4,33.3z"/>
<g>
	<path class="st5" d="M81.1,184.1l-4-3.8l0.2-10.3c0-1.4-1.1-2.5-2.5-2.5c-1.4,0-2.5,1.1-2.5,2.5l-0.1,9.9c-0.2,0.1-0.5,0.3-0.6,0.5
		l-3.7,4.2c-0.8,1-0.7,2.5,0.3,3.3c1,0.8,2.4,0.7,3.3-0.2l1.1-1.2l0,1.1c0,1.3,1,2.4,2.3,2.4c1.3,0,2.4-1,2.4-2.3l0-0.8l0.8,0.7
		c0.9,0.9,2.4,0.9,3.3-0.1C82.1,186.5,82,185,81.1,184.1z"/>
	<path class="st5" d="M111,184.5l-4-3.8l0.2-10.3c0-1.4-1.1-2.5-2.5-2.5c-1.4,0-2.5,1.1-2.5,2.5l-0.1,9.9c-0.2,0.1-0.5,0.3-0.6,0.5
		l-3.7,4.2c-0.8,1-0.7,2.4,0.2,3.3c1,0.8,2.4,0.7,3.3-0.2l1.1-1.2l0,1.1c0,1.3,1,2.4,2.3,2.4c1.3,0,2.3-1,2.4-2.3l0-0.8l0.8,0.7
		c0.9,0.9,2.4,0.9,3.3-0.1C111.9,186.9,111.9,185.4,111,184.5z"/>
</g>
<path class="st6" d="M120.7,45.8c-14.1-0.2-26.1,9.4-29.5,22.6c-2.9-13.2-14.6-23.2-28.8-23.4c-16.5-0.2-30.1,13-30.4,29.5
	c-0.2,16.6,13,30.2,29.5,30.4c14.1,0.2,26.1-9.4,29.4-22.6c2.9,13.2,14.6,23.2,28.8,23.4c16.5,0.2,30.1-13,30.4-29.5
	C150.4,59.6,137.2,46,120.7,45.8z"/>
<path class="st7" d="M99.9,74.7c-0.2,12.1,9.5,22,21.5,22.2c12.1,0.2,22-9.5,22.2-21.5c0.2-12.1-9.4-22-21.5-22.2
	C110,53,100.1,62.6,99.9,74.7z"/>
<path class="st7" d="M82.4,74.5C82.2,86.5,72.3,96.2,60.2,96c-12.1-0.2-21.7-10.1-21.5-22.2c0.2-12.1,10.1-21.7,22.2-21.5
	C72.9,52.4,82.5,62.4,82.4,74.5z"/>
<path class="st8" d="M77.1,76.4C77,84,70.7,90.1,63.1,90c-7.6-0.1-13.7-6.4-13.6-14c0.1-7.6,6.4-13.7,14-13.6
	C71.1,62.4,77.2,68.7,77.1,76.4z"/>
<path class="st7" d="M67.8,68.2c0,2.2-1.8,3.9-4,3.9c-2.2,0-3.9-1.8-3.9-4c0-2.2,1.8-3.9,4-3.9C66.1,64.2,67.8,66,67.8,68.2z"/>
<g>
	<polygon class="st9" points="83.2,83.9 90.8,94.9 91.1,76.6 	"/>
	<polygon class="st5" points="91.1,76.6 90.8,94.9 98.8,84.1 	"/>
</g>
<g>
	<g>
		<path class="st6" d="M128.6,156.6c0.9-3.2,1.5-6.6,1.5-10c0.3-21.5-17.3-39.3-39.4-39.6c-22.1-0.3-40.3,16.9-40.6,38.4
			c0,3.5,0.4,6.9,1.2,10.1c11,8.6,24.3,11.7,38.5,11.8C103.5,167.6,117.3,164.9,128.6,156.6z"/>
	</g>
	<g>
		<defs>
			<path id="SVGID_1_" d="M128.6,156.6c0.9-3.2,1.5-6.6,1.5-10c0.3-21.5-17.3-39.3-39.4-39.6c-22.1-0.3-40.3,16.9-40.6,38.4
				c0,3.5,0.4,6.9,1.2,10.1c11,8.6,24.3,11.7,38.5,11.8C103.5,167.6,117.3,164.9,128.6,156.6z"/>
		</defs>
		<use xlink:href="#SVGID_1_"  style="overflow:visible;fill:#D1E8EC;"/>
		<clipPath id="SVGID_2_">
			<use xlink:href="#SVGID_1_"  style="overflow:visible;"/>
		</clipPath>
		<g class="st10">
			<g>
				<polygon class="st6" points="74.2,122.7 67.3,122.6 70.8,126.2 				"/>
				<polygon class="st6" points="81.9,122.9 75,122.8 78.5,126.4 				"/>
				<polygon class="st6" points="89.7,123 82.7,122.9 86.2,126.5 				"/>
				<polygon class="st6" points="97.4,123.1 90.5,123 93.9,126.6 				"/>
				<polygon class="st6" points="105.1,123.2 98.2,123.1 101.7,126.7 				"/>
				<polygon class="st6" points="112.8,123.3 105.9,123.2 109.4,126.8 				"/>
				<polygon class="st6" points="120.6,123.4 113.7,123.3 117.1,126.9 				"/>
				<polygon class="st6" points="66.5,122.6 59.5,122.5 63,126.1 				"/>
			</g>
			<g>
				<polygon class="st6" points="78.1,118.2 71.2,118.1 74.7,121.7 				"/>
				<polygon class="st6" points="85.9,118.3 78.9,118.2 82.4,121.8 				"/>
				<polygon class="st6" points="93.6,118.4 86.7,118.3 90.2,121.9 				"/>
				<polygon class="st6" points="101.3,118.5 94.4,118.4 97.9,122 				"/>
				<polygon class="st6" points="109.1,118.6 102.1,118.5 105.6,122.1 				"/>
				<polygon class="st6" points="116.8,118.8 109.9,118.6 113.4,122.2 				"/>
				<polygon class="st6" points="70.4,118.1 63.5,118 67,121.5 				"/>
				<polygon class="st6" points="132.2,119 125.3,118.9 128.8,122.5 				"/>
			</g>
			<g>
				<polygon class="st6" points="70.5,108.8 63.6,108.7 67.1,112.3 				"/>
				<polygon class="st6" points="78.3,108.9 71.3,108.8 74.8,112.4 				"/>
				<polygon class="st6" points="86,109 79.1,108.9 82.6,112.5 				"/>
				<polygon class="st6" points="93.7,109.1 86.8,109 90.3,112.6 				"/>
				<polygon class="st6" points="101.5,109.3 94.5,109.2 98,112.7 				"/>
				<polygon class="st6" points="109.2,109.4 102.3,109.3 105.8,112.9 				"/>
				<polygon class="st6" points="116.9,109.5 110,109.4 113.5,113 				"/>
				<polygon class="st6" points="62.8,108.7 55.9,108.6 59.4,112.2 				"/>
				<polygon class="st6" points="132.4,109.7 125.5,109.6 129,113.2 				"/>
				<polygon class="st6" points="124.7,109.6 117.7,109.5 121.2,113.1 				"/>
			</g>
			<g>
				<polygon class="st6" points="74.3,113.5 67.4,113.4 70.9,117 				"/>
				<polygon class="st6" points="82.1,113.6 75.1,113.5 78.6,117.1 				"/>
				<polygon class="st6" points="89.8,113.7 82.9,113.6 86.4,117.2 				"/>
				<polygon class="st6" points="97.5,113.8 90.6,113.7 94.1,117.3 				"/>
				<polygon class="st6" points="105.3,113.9 98.3,113.8 101.8,117.4 				"/>
				<polygon class="st6" points="113,114.1 106.1,114 109.6,117.6 				"/>
				<polygon class="st6" points="66.6,113.4 59.7,113.3 63.1,116.9 				"/>
				<polygon class="st6" points="136.2,114.4 129.3,114.3 132.8,117.9 				"/>
				<polygon class="st6" points="128.5,114.3 121.5,114.2 125,117.8 				"/>
			</g>
			<g>
				<polygon class="st6" points="73.5,141.3 66.6,141.2 70.1,144.8 				"/>
				<polygon class="st6" points="81.2,141.4 74.3,141.3 77.8,144.9 				"/>
				<polygon class="st6" points="89,141.5 82.1,141.4 85.5,145 				"/>
				<polygon class="st6" points="96.7,141.6 89.8,141.5 93.3,145.1 				"/>
				<polygon class="st6" points="104.4,141.7 97.5,141.6 101,145.2 				"/>
				<polygon class="st6" points="112.2,141.8 105.3,141.7 108.7,145.3 				"/>
				<polygon class="st6" points="119.9,142 113,141.9 116.5,145.5 				"/>
				<polygon class="st6" points="65.8,141.2 58.9,141.1 62.3,144.7 				"/>
				<polygon class="st6" points="58,141 51.1,140.9 54.6,144.5 				"/>
				<polygon class="st6" points="135.4,142.2 128.5,142.1 131.9,145.7 				"/>
				<polygon class="st6" points="127.6,142.1 120.7,142 124.2,145.6 				"/>
			</g>
			<g>
				<polygon class="st6" points="54.6,136.4 47.7,136.3 51.2,139.9 				"/>
				<polygon class="st6" points="77.4,136.7 70.5,136.6 74,140.2 				"/>
				<polygon class="st6" points="85.2,136.8 78.3,136.7 81.7,140.3 				"/>
				<polygon class="st6" points="92.9,136.9 86,136.8 89.5,140.4 				"/>
				<polygon class="st6" points="100.6,137 93.7,136.9 97.2,140.5 				"/>
				<polygon class="st6" points="108.4,137.2 101.4,137.1 104.9,140.7 				"/>
				<polygon class="st6" points="116.1,137.3 109.2,137.2 112.7,140.8 				"/>
				<polygon class="st6" points="123.8,137.4 116.9,137.3 120.4,140.9 				"/>
				<polygon class="st6" points="69.7,136.6 62.8,136.5 66.3,140.1 				"/>
				<polygon class="st6" points="62,136.5 55.1,136.4 58.5,140 				"/>
				<polygon class="st6" points="131.6,137.5 124.6,137.4 128.1,141 				"/>
			</g>
			<g>
				<polygon class="st6" points="54.4,127.1 47.5,127 50.9,130.6 				"/>
				<polygon class="st6" points="69.8,127.3 62.9,127.2 66.4,130.8 				"/>
				<polygon class="st6" points="77.6,127.4 70.7,127.3 74.1,130.9 				"/>
				<polygon class="st6" points="85.3,127.5 78.4,127.4 81.9,131 				"/>
				<polygon class="st6" points="93,127.7 86.1,127.6 89.6,131.1 				"/>
				<polygon class="st6" points="100.8,127.8 93.9,127.7 97.3,131.3 				"/>
				<polygon class="st6" points="108.5,127.9 101.6,127.8 105.1,131.4 				"/>
				<polygon class="st6" points="116.2,128 109.3,127.9 112.8,131.5 				"/>
				<polygon class="st6" points="62.1,127.2 55.2,127.1 58.7,130.7 				"/>
				<polygon class="st6" points="124,128.1 117.1,128 120.5,131.6 				"/>
			</g>
			<g>
				<polygon class="st6" points="73.6,132 66.7,131.9 70.2,135.5 				"/>
				<polygon class="st6" points="81.4,132.1 74.5,132 77.9,135.6 				"/>
				<polygon class="st6" points="89.1,132.2 82.2,132.1 85.7,135.7 				"/>
				<polygon class="st6" points="96.8,132.4 89.9,132.3 93.4,135.8 				"/>
				<polygon class="st6" points="104.6,132.5 97.7,132.4 101.1,136 				"/>
				<polygon class="st6" points="112.3,132.6 105.4,132.5 108.9,136.1 				"/>
				<polygon class="st6" points="120,132.7 113.1,132.6 116.6,136.2 				"/>
				<polygon class="st6" points="65.9,131.9 59,131.8 62.5,135.4 				"/>
				<polygon class="st6" points="58.2,131.8 51.3,131.7 54.7,135.3 				"/>
				<polygon class="st6" points="135.5,132.9 128.6,132.8 132.1,136.4 				"/>
				<polygon class="st6" points="127.8,132.8 120.9,132.7 124.3,136.3 				"/>
			</g>
			<g>
				<polygon class="st6" points="65.5,159.7 58.6,159.6 62.1,163.2 				"/>
				<polygon class="st6" points="73.2,159.8 66.3,159.7 69.8,163.3 				"/>
				<polygon class="st6" points="81,159.9 74,159.8 77.5,163.4 				"/>
				<polygon class="st6" points="88.7,160 81.8,159.9 85.3,163.5 				"/>
				<polygon class="st6" points="96.4,160.1 89.5,160 93,163.6 				"/>
				<polygon class="st6" points="104.2,160.3 97.2,160.2 100.7,163.8 				"/>
				<polygon class="st6" points="111.9,160.4 105,160.3 108.5,163.9 				"/>
				<polygon class="st6" points="119.6,160.5 112.7,160.4 116.2,164 				"/>
			</g>
			<g>
				<polygon class="st6" points="130.9,156 124,155.9 127.5,159.5 				"/>
				<polygon class="st6" points="69.4,155.1 62.5,155 66,158.6 				"/>
				<polygon class="st6" points="77.2,155.2 70.2,155.1 73.7,158.7 				"/>
				<polygon class="st6" points="84.9,155.3 78,155.2 81.5,158.8 				"/>
				<polygon class="st6" points="92.6,155.5 85.7,155.4 89.2,159 				"/>
				<polygon class="st6" points="100.4,155.6 93.4,155.5 96.9,159.1 				"/>
				<polygon class="st6" points="108.1,155.7 101.2,155.6 104.7,159.2 				"/>
				<polygon class="st6" points="115.8,155.8 108.9,155.7 112.4,159.3 				"/>
				<polygon class="st6" points="61.7,155 54.8,154.9 58.3,158.5 				"/>
				<polygon class="st6" points="54,154.9 47,154.8 50.5,158.4 				"/>
				<polygon class="st6" points="123.6,155.9 116.6,155.8 120.1,159.4 				"/>
			</g>
			<g>
				<polygon class="st6" points="131.3,146.8 124.3,146.7 127.8,150.3 				"/>
				<polygon class="st6" points="61.8,145.7 54.9,145.6 58.4,149.2 				"/>
				<polygon class="st6" points="69.6,145.8 62.6,145.7 66.1,149.3 				"/>
				<polygon class="st6" points="77.3,146 70.4,145.9 73.9,149.5 				"/>
				<polygon class="st6" points="85,146.1 78.1,146 81.6,149.6 				"/>
				<polygon class="st6" points="92.8,146.2 85.9,146.1 89.3,149.7 				"/>
				<polygon class="st6" points="100.5,146.3 93.6,146.2 97.1,149.8 				"/>
				<polygon class="st6" points="108.2,146.4 101.3,146.3 104.8,149.9 				"/>
				<polygon class="st6" points="54.1,145.6 47.2,145.5 50.7,149.1 				"/>
				<polygon class="st6" points="123.7,146.6 116.8,146.5 120.3,150.1 				"/>
				<polygon class="st6" points="116,146.5 109,146.4 112.5,150 				"/>
			</g>
			<g>
				<polygon class="st6" points="65.6,150.4 58.7,150.3 62.2,153.9 				"/>
				<polygon class="st6" points="73.4,150.5 66.4,150.4 69.9,154 				"/>
				<polygon class="st6" points="81.1,150.7 74.2,150.6 77.7,154.1 				"/>
				<polygon class="st6" points="88.8,150.8 81.9,150.7 85.4,154.3 				"/>
				<polygon class="st6" points="96.6,150.9 89.6,150.8 93.1,154.4 				"/>
				<polygon class="st6" points="104.3,151 97.4,150.9 100.9,154.5 				"/>
				<polygon class="st6" points="112,151.1 105.1,151 108.6,154.6 				"/>
				<polygon class="st6" points="57.9,150.3 51,150.2 54.5,153.8 				"/>
				<polygon class="st6" points="134.8,151.5 127.9,151.4 131.4,154.9 				"/>
				<polygon class="st6" points="127.5,151.3 120.6,151.2 124.1,154.8 				"/>
				<polygon class="st6" points="119.8,151.2 112.8,151.1 116.3,154.7 				"/>
			</g>
		</g>
	</g>
</g>
<path class="st0" d="M40.2,160.2c0,0-39.1-21.4-13.3-75.4C26.9,84.8,57.5,130.7,40.2,160.2z"/>
<path class="st0" d="M24.4,160.7c0,0-39.9-33.7,2.5-75.9C26.9,84.8,50.6,138.7,24.4,160.7z"/>
<path class="st11" d="M133.5,54.9c-3.3-0.1-17.5-0.3-24.7,1.6c-6.8,1.7-16.5,2.1-17.4,2.1v-0.1c0,0-10.3-0.6-17.4-2.7
	c-7.1-2-21.3-2.2-24.6-2.3c-3.3-0.1-21.7,2.1-22.4,2.3l0.8,8.3c0,0,3.1-0.3,4.1,4.9c0.9,5.2,5.1,16.1,8.3,19.8
	c3.3,3.8,10.3,6.5,17.3,6.6c7,0.1,11.8-0.7,16.1-3.4c4.3-2.8,8.1-8.3,10.4-14.8c2.2-6.5,2.4-9.2,7.2-9.1v0.1c4.9,0.1,5,2.8,7,9.3
	c2,6.6,5.7,12.2,9.9,15.1c4.2,2.9,9,3.8,16,3.9c7,0.1,14.1-2.3,17.5-6.1c3.3-3.6,7.8-14.4,8.9-19.6c1.1-5.2,4.2-4.8,4.2-4.8l1.1-8.3
	C155.2,57.6,136.8,54.9,133.5,54.9z M78.6,82.7c-3.5,9.2-12.7,11-20.7,10.9c-8-0.1-13.5-3.1-16.5-6.6c-2.4-2.8-4.6-10.6-4.9-14.1
	c-0.4-3.5-1.2-11.6,3.6-14c4.8-2.5,18.3-1.6,18.3-1.6c4.5,0.1,9.9,1.1,15.2,2.4c5.3,1.3,8.3,3.6,8.8,6.3
	C82.9,68.8,82.1,73.5,78.6,82.7z M145.9,74.6c-0.5,3.5-2.9,11.2-5.4,13.9c-3.1,3.5-8.7,6.3-16.7,6.1c-8-0.1-17.2-2.2-20.4-11.5
	c-3.2-9.3-3.8-14.1-3.2-16.8c0.5-2.7,3.6-4.9,8.9-6.1c5.3-1.2,10.7-2,15.2-2c0,0,13.5-0.5,18.3,2.1
	C147.4,63.1,146.3,71.1,145.9,74.6z"/>
<path class="st12" d="M121.2,49c0,0-53.7,15.1-73.5-19.2c0,0,5.3,2.6,10.9,2c0,0-1.3-0.3-4.5-6.9l5.4,2.9c0,0-9.3-7.6-5.2-21
	c0,0,8.5,9.8,17.5,11.2l-5.1-6.9c0,0,6.7-0.8,18.1,3.1l-1.9-5c0,0,26.5,2.3,38.6,18.3C133.6,43.6,121.2,49,121.2,49z"/>
<path class="st8" d="M137.1,74.3c-0.1,7.6-6.4,13.7-14,13.6c-7.6-0.1-13.7-6.4-13.6-14c0.1-7.6,6.4-13.7,14-13.6
	C131.1,60.4,137.2,66.7,137.1,74.3z"/>
<path class="st7" d="M126.7,67c0,2.2-1.8,3.9-4,3.9c-2.2,0-3.9-1.8-3.9-4c0-2.2,1.8-3.9,4-3.9C125,63,126.8,64.8,126.7,67z"/>
</svg>
